<svg xmlns="http://www.w3.org/2000/svg" viewBox="0 0 32 32">
  <path
    fill="#fafafa"
    d="M591 -9Q555 -9 537 21Q519 51 535 114L612 404Q623 443 615.5 458Q608 473 594 473Q574 473 548 445.5Q522 418 493.5 371Q465 324 438 264Q411 204 388 139Q365 74 350 11Q347 0 336 0L297 0Q283 0 286 13L378 404Q387 443 380.5 458Q374 473 360 473Q341 473 315 445.5Q289 418 261 371Q233 324 206 264Q179 204 156 139Q133 74 119 11Q116 0 105 0L64 0Q50 0 53 13L148 412Q153 434 149.5 446.5Q146 459 131 459Q113 459 91.5 432.5Q70 406 43 332Q39 319 29 319Q14 319 21 337Q43 406 67.5 445Q92 484 117 500Q142 516 163 516Q196 516 210 491.5Q224 467 211 411L186 303Q185 296 189 295Q193 294 196 300Q254 420 301 468Q348 516 387 516Q424 516 439.5 486Q455 456 441 394L420 303Q419 296 423 295Q427 294 430 300Q468 381 501.5 428.5Q535 476 565 496Q595 516 621 516Q658 516 675 486Q692 456 675 394L599 104Q592 76 598 62Q604 48 620 48Q640 48 659.5 74.5Q679 101 700 175Q703 186 713 186Q721 186 722.5 180Q724 174 722 166Q703 98 681 59.5Q659 21 636.5 6Q614 -9 591 -9Z"
    transform="translate(0.15 27) scale(0.0435 -0.0435)"
  />
</svg>
